{"title":"The Tourist (2010)(AUDIO DD 5.1)(DivX)(Nu in Bios)(Nl subs) TBS","uid":6128750,"size":937106553,"categoryP":"video","categoryS":"movies","magnet":"?xt=urn:btih:9339365d13e19ef3ca7374ad02bb452679d78b11&amp;dn=The+Tourist+%282010%29%28AUDIO+DD+5.1%29%28DivX%29%28Nu+in+Bios%29%28Nl+subs%29+TBS&amp;tr=udp%3A%2F%2Ftracker.openbittorrent.com%3A80&amp;tr=udp%3A%2F%2Fopen.demonii.com%3A1337&amp;tr=udp%3A%2F%2Ftracker.coppersurfer.tk%3A6969&amp;tr=udp%3A%2F%2Fexodus.desync.com%3A6969","seeders":1,"leechers":0,"uploader":"Vlinder.","files":-1,"time":1296048568,"description":"The Tourist (2010)(DD 5.1)(DivX)(Nl subs) TBS \n\n*****Momenteel te zien in 70 bioscopen***** \n\n\nVerenigde Staten / Frankrijk\nActie / Drama\n104 minuten\n\ngeregisseerd door Florian Henckel von Donnersmarck\nmet Johnny Depp, Angelina Jolie en Paul Bettany\n\nFrank Taylor is een Amerikaanse toerist, die in Europa gemoedsrust probeert te vinden. \nMaar dan raakt hij verstrikt in een web van samenzweringen en leugens van Elise, een Interpolagent. \nElise zit echter achter een crimineel aan met wie ze in het verleden een liefdesrelatie had.\n\nStoryline\n\nElise (Angelina Jolie) sits next to an American tourist, Frank (Johnny Depp), on a train going to Venice. \nShe has chosen him as a decoy, making believe that he is her lover who is wanted for police. \nNot only will they need to evade the police, but also the mobster whose money her lover stole\n\n\nInfo :\n\nSOURCE..........: The Tourist 2010 R5 Dvd Elekti4ka\nSIZE............: 896 MB\nFORM............: AVI\nVIDEO CODEC.....: XVID \nAUDIO...........: English\nAUDIO CODE......: AC3\nBITRATE.........: 448kbps\nCHANNELS........: 6\nSUBTITELS.......: NEDERLANDS INGEBAKKEN\nCategorie.......: Beeld \nFormaat.........: DivX \nBron............: R5\nOndertitels.....: Nederlands (ingebakken)\nThanks..........: Inge2222  \n\nGeneral\nComplete name                    : The Tourist R5 DD 5.1.avi\nFormat                           : AVI\nFormat/Info                      : Audio Video Interleave\nFile size                        : 894 MiB\nDuration                         : 1h 39mn\nOverall bit rate                 : 1 257 Kbps\nWriting application              : VirtualDubMod 1.5.10.2 (build 2542/release)\nWriting library                  : VirtualDubMod build 2542/release\n\nVideo\nID                               : 0\nFormat                           : MPEG-4 Visual\nFormat profile                   : Advanced Simple@L5\nFormat settings, BVOP            : Yes\nFormat settings, QPel            : No\nFormat settings, GMC             : No warppoints\nFormat settings, Matrix          : Default (H.263)\nMuxing mode                      : Packed bitstream\nCodec ID                         : XVID\nCodec ID/Hint                    : XviD\nDuration                         : 1h 39mn\nBit rate                         : 802 Kbps\nWidth                            : 720 pixels\nHeight                           : 304 pixels\nDisplay aspect ratio             : 2.35:1\nFrame rate                       : 25.000 fps\nColor space                      : YUV\nChroma subsampling               : 4:2:0\nBit depth                        : 8 bits\nScan type                        : Progressive\nBits/(Pixel*Frame)               : 0.146\nStream size                      : 570 MiB (64%)\nWriting library                  : XviD 1.2.1 (UTC 2008-12-04)\n\nAudio\nID                               : 1\nFormat                           : AC-3\nFormat/Info                      : Audio Coding 3\nMode extension                   : CM (complete main)\nCodec ID                         : 2000\nDuration                         : 1h 39mn\nBit rate mode                    : Constant\nBit rate                         : 448 Kbps\nChannel(s)                       : 6 channels\nChannel positions                : Front: L C R, Side: L R, LFE\nSampling rate                    : 48.0 KHz\nBit depth                        : 16 bits\nStream size                      : 318 MiB (36%)\nAlignment                        : Split accross interleaves\nInterleave, duration             : 64 ms (1.60 video frames)\nInterleave, preload duration     : 500 ms\n \n &lt;a href=&quot;\nhttp://www.moviemeter.nl/film/67085&quot; rel=&quot;nofollow&quot; target=&quot;_NEW&quot;&gt;\nhttp://www.moviemeter.nl/film/67085&lt;/a&gt;  &lt;a href=&quot;\nhttp://www.imdb.com/title/tt1243957&quot; rel=&quot;nofollow&quot; target=&quot;_NEW&quot;&gt;\nhttp://www.imdb.com/title/tt1243957&lt;/a&gt;","torrent":{"xt":"urn:btih:9339365d13e19ef3ca7374ad02bb452679d78b11","amp;dn":"The+Tourist+%282010%29%28AUDIO+DD+5.1%29%28DivX%29%28Nu+in+Bios%29%28Nl+subs%29+TBS","amp;tr":["udp%3A%2F%2Ftracker.openbittorrent.com%3A80","udp%3A%2F%2Fopen.demonii.com%3A1337","udp%3A%2F%2Ftracker.coppersurfer.tk%3A6969","udp%3A%2F%2Fexodus.desync.com%3A6969"],"infoHash":"9339365d13e19ef3ca7374ad02bb452679d78b11","infoHashBuffer":{"type":"Buffer","data":[147,57,54,93,19,225,158,243,202,115,116,173,2,187,69,38,121,215,139,17]},"announce":[],"urlList":[]}}